<mxfile host="Electron" modified="2024-02-07T00:11:32.375Z" agent="Mozilla/5.0 (X11; Linux x86_64) AppleWebKit/537.36 (KHTML, like Gecko) draw.io/23.0.2 Chrome/120.0.6099.109 Electron/28.2.0 Safari/537.36" etag="foW2Yhf_XRpKGpg64W59" version="23.0.2" type="device">
  <diagram name="Page-1" id="msqjQD5EW5xsd1GT00Ly">
    <mxGraphModel dx="622" dy="1120" grid="1" gridSize="10" guides="1" tooltips="1" connect="1" arrows="1" fold="1" page="1" pageScale="1" pageWidth="850" pageHeight="1100" math="0" shadow="0">
      <root>
        <mxCell id="0" />
        <mxCell id="1" parent="0" />
        <mxCell id="i3ZK8VEa1icawQo8iLAI-37" style="edgeStyle=orthogonalEdgeStyle;rounded=0;orthogonalLoop=1;jettySize=auto;html=1;exitX=1;exitY=0.5;exitDx=0;exitDy=0;entryX=0;entryY=0.5;entryDx=0;entryDy=0;" parent="1" source="bSWF4oOUkGgmCG99WGxA-21" target="bSWF4oOUkGgmCG99WGxA-30" edge="1">
          <mxGeometry relative="1" as="geometry" />
        </mxCell>
        <mxCell id="bSWF4oOUkGgmCG99WGxA-21" value="" style="rounded=1;whiteSpace=wrap;html=1;fillColor=#E3F1FF;strokeColor=#000000;shadow=1;" parent="1" vertex="1">
          <mxGeometry x="40" y="485.5" width="443" height="310" as="geometry" />
        </mxCell>
        <mxCell id="44jSjKUCLiIzwBJKCwdd-6" style="edgeStyle=orthogonalEdgeStyle;rounded=1;orthogonalLoop=1;jettySize=auto;html=1;exitX=1;exitY=0.5;exitDx=0;exitDy=0;entryX=0;entryY=0.5;entryDx=0;entryDy=0;" parent="1" source="bSWF4oOUkGgmCG99WGxA-22" target="44jSjKUCLiIzwBJKCwdd-2" edge="1">
          <mxGeometry relative="1" as="geometry" />
        </mxCell>
        <mxCell id="bSWF4oOUkGgmCG99WGxA-22" value="&lt;font style=&quot;font-size: 16px;&quot; color=&quot;#000000&quot; face=&quot;Comic Neue&quot;&gt;MIMIC-IV&lt;/font&gt;" style="shape=datastore;whiteSpace=wrap;html=1;shadow=1;fontStyle=0;strokeWidth=0.5;fillColor=#cce5ff;strokeColor=#000000;" parent="1" vertex="1">
          <mxGeometry x="60" y="619.72" width="80" height="100" as="geometry" />
        </mxCell>
        <mxCell id="FoI2KmP5DHRewftGKQJd-11" style="edgeStyle=orthogonalEdgeStyle;rounded=0;orthogonalLoop=1;jettySize=auto;html=1;exitX=1;exitY=0.5;exitDx=0;exitDy=0;entryX=0;entryY=0.5;entryDx=0;entryDy=0;" parent="1" source="bSWF4oOUkGgmCG99WGxA-24" target="44jSjKUCLiIzwBJKCwdd-3" edge="1">
          <mxGeometry relative="1" as="geometry" />
        </mxCell>
        <mxCell id="bSWF4oOUkGgmCG99WGxA-24" value="&lt;font style=&quot;font-size: 16px;&quot; color=&quot;#000000&quot; data-font-src=&quot;https://fonts.googleapis.com/css?family=Comic+Neue&quot; face=&quot;Comic Neue&quot;&gt;ORDO&lt;br&gt;Ontology&lt;/font&gt;" style="shape=datastore;whiteSpace=wrap;html=1;shadow=1;fillColor=#cce5ff;strokeColor=#000000;strokeWidth=0.5;" parent="1" vertex="1">
          <mxGeometry x="60" y="508.2000000000001" width="80" height="97.5" as="geometry" />
        </mxCell>
        <mxCell id="GejhwIrvKGc9RxpqlBLe-3" style="edgeStyle=orthogonalEdgeStyle;rounded=0;orthogonalLoop=1;jettySize=auto;html=1;exitX=1;exitY=0.5;exitDx=0;exitDy=0;entryX=0;entryY=0.5;entryDx=0;entryDy=0;" parent="1" source="bSWF4oOUkGgmCG99WGxA-30" target="pp-5m8UVQTDZ82F4YCKo-4" edge="1">
          <mxGeometry relative="1" as="geometry" />
        </mxCell>
        <mxCell id="bSWF4oOUkGgmCG99WGxA-30" value="&lt;font face=&quot;Comic Neue&quot;&gt;&lt;font style=&quot;font-size: 16px;&quot; color=&quot;#000000&quot;&gt;MIMIC-IV Subset&lt;/font&gt;&lt;br&gt;&lt;/font&gt;" style="shape=datastore;whiteSpace=wrap;html=1;shadow=1;strokeWidth=0.5;fillColor=#cce5ff;strokeColor=#000000;" parent="1" vertex="1">
          <mxGeometry x="520" y="598.64" width="140" height="83.71" as="geometry" />
        </mxCell>
        <mxCell id="5rCoUwJIOFsVF5jnwrq--2" value="&lt;font style=&quot;font-size: 16px;&quot; face=&quot;Comic Neue&quot;&gt;Matching Engine&lt;/font&gt;" style="rounded=1;whiteSpace=wrap;html=1;strokeWidth=0.5;shadow=1;" parent="1" vertex="1">
          <mxGeometry x="180.63" y="762" width="157" height="22.5" as="geometry" />
        </mxCell>
        <mxCell id="44jSjKUCLiIzwBJKCwdd-2" value="&lt;font style=&quot;font-size: 16px;&quot;&gt;Parallel Term Matching&lt;/font&gt;" style="rounded=1;whiteSpace=wrap;html=1;fillColor=#ACEBC3;strokeColor=#000000;strokeWidth=0.5;glass=0;shadow=1;fontFamily=Comic Neue;fontSource=https%3A%2F%2Ffonts.googleapis.com%2Fcss%3Ffamily%3DComic%2BNeue;fontStyle=0" parent="1" vertex="1">
          <mxGeometry x="350" y="586.7900000000001" width="120" height="75" as="geometry" />
        </mxCell>
        <mxCell id="44jSjKUCLiIzwBJKCwdd-5" style="edgeStyle=orthogonalEdgeStyle;rounded=1;orthogonalLoop=1;jettySize=auto;html=1;exitX=1;exitY=0.5;exitDx=0;exitDy=0;entryX=0.5;entryY=0;entryDx=0;entryDy=0;" parent="1" source="44jSjKUCLiIzwBJKCwdd-3" target="44jSjKUCLiIzwBJKCwdd-2" edge="1">
          <mxGeometry relative="1" as="geometry" />
        </mxCell>
        <mxCell id="44jSjKUCLiIzwBJKCwdd-3" value="&lt;font style=&quot;font-size: 16px;&quot; color=&quot;#000000&quot;&gt;SPARQL Processing&lt;/font&gt;" style="rounded=1;whiteSpace=wrap;html=1;fillColor=#C8B8FF;strokeColor=#000000;strokeWidth=0.5;glass=0;shadow=1;fontFamily=Comic Neue;fontSource=https%3A%2F%2Ffonts.googleapis.com%2Fcss%3Ffamily%3DComic%2BNeue;fontStyle=0;fontColor=#ffffff;" parent="1" vertex="1">
          <mxGeometry x="180.5" y="532.89" width="157.25" height="48.12" as="geometry" />
        </mxCell>
        <mxCell id="i3ZK8VEa1icawQo8iLAI-10" value="&lt;font face=&quot;Comic Neue&quot;&gt;&lt;font style=&quot;font-size: 16px;&quot; color=&quot;#000000&quot;&gt;Final Subset&lt;/font&gt;&lt;br&gt;&lt;/font&gt;" style="shape=datastore;whiteSpace=wrap;html=1;shadow=1;strokeWidth=0.5;fillColor=#cce5ff;strokeColor=#000000;" parent="1" vertex="1">
          <mxGeometry x="1100" y="614.32" width="140" height="52.35" as="geometry" />
        </mxCell>
        <mxCell id="FoI2KmP5DHRewftGKQJd-1" style="edgeStyle=orthogonalEdgeStyle;rounded=0;orthogonalLoop=1;jettySize=auto;html=1;exitX=1;exitY=0.5;exitDx=0;exitDy=0;entryX=0;entryY=0.5;entryDx=0;entryDy=0;" parent="1" source="pp-5m8UVQTDZ82F4YCKo-4" target="i3ZK8VEa1icawQo8iLAI-10" edge="1">
          <mxGeometry relative="1" as="geometry" />
        </mxCell>
        <mxCell id="pp-5m8UVQTDZ82F4YCKo-4" value="" style="rounded=1;whiteSpace=wrap;html=1;fillColor=#E3F1FF;strokeColor=#000000;shadow=1;" parent="1" vertex="1">
          <mxGeometry x="700" y="507.17" width="360" height="266.66" as="geometry" />
        </mxCell>
        <mxCell id="pp-5m8UVQTDZ82F4YCKo-5" value="&lt;font style=&quot;font-size: 16px;&quot; face=&quot;Comic Neue&quot;&gt;Annotation Process&lt;/font&gt;" style="rounded=1;whiteSpace=wrap;html=1;strokeWidth=0.5;shadow=1;" parent="1" vertex="1">
          <mxGeometry x="796.63" y="739.5" width="166.75" height="22.5" as="geometry" />
        </mxCell>
        <mxCell id="pp-5m8UVQTDZ82F4YCKo-6" value="" style="rounded=1;whiteSpace=wrap;html=1;fillColor=#cce5ff;strokeColor=#000000;shadow=1;" parent="1" vertex="1">
          <mxGeometry x="847.5" y="550.72" width="195" height="167.13" as="geometry" />
        </mxCell>
        <mxCell id="pp-5m8UVQTDZ82F4YCKo-7" value="&lt;font style=&quot;font-size: 16px;&quot; face=&quot;Comic Neue&quot;&gt;Two Rounds of&lt;br&gt;IAA-Aware Annotations&lt;br&gt;&lt;/font&gt;" style="rounded=1;whiteSpace=wrap;html=1;strokeWidth=0.5;shadow=1;" parent="1" vertex="1">
          <mxGeometry x="860.53" y="656.73" width="168.93" height="46.63" as="geometry" />
        </mxCell>
        <mxCell id="GejhwIrvKGc9RxpqlBLe-5" style="edgeStyle=orthogonalEdgeStyle;rounded=1;orthogonalLoop=1;jettySize=auto;html=1;exitX=0.5;exitY=0;exitDx=0;exitDy=0;entryX=0.5;entryY=0;entryDx=0;entryDy=0;" parent="1" source="pp-5m8UVQTDZ82F4YCKo-12" target="pp-5m8UVQTDZ82F4YCKo-6" edge="1">
          <mxGeometry relative="1" as="geometry" />
        </mxCell>
        <mxCell id="pp-5m8UVQTDZ82F4YCKo-12" value="&lt;font style=&quot;font-size: 16px;&quot; data-font-src=&quot;https://fonts.googleapis.com/css?family=Comic+Neue&quot; face=&quot;Comic Neue&quot;&gt;Annotation Guidelines&lt;br&gt;&lt;br&gt;&lt;br&gt;&lt;br&gt;&lt;br&gt;&lt;br&gt;&lt;/font&gt;" style="rounded=1;whiteSpace=wrap;html=1;shadow=1;fontStyle=0;fillColor=#f9f7ed;strokeColor=#000000;strokeWidth=0.5;" parent="1" vertex="1">
          <mxGeometry x="717.5" y="571.73" width="102.5" height="146.12" as="geometry" />
        </mxCell>
        <mxCell id="GejhwIrvKGc9RxpqlBLe-11" style="edgeStyle=orthogonalEdgeStyle;rounded=1;orthogonalLoop=1;jettySize=auto;html=1;exitX=1;exitY=0.5;exitDx=0;exitDy=0;entryX=0.5;entryY=1;entryDx=0;entryDy=0;" parent="1" source="GejhwIrvKGc9RxpqlBLe-1" target="44jSjKUCLiIzwBJKCwdd-2" edge="1">
          <mxGeometry relative="1" as="geometry" />
        </mxCell>
        <mxCell id="GejhwIrvKGc9RxpqlBLe-1" value="&lt;font style=&quot;font-size: 16px;&quot; color=&quot;#000000&quot;&gt;Weak Supervision Rules&lt;br&gt;Ã  la Dong et al., 2023&lt;/font&gt;" style="rounded=1;whiteSpace=wrap;html=1;fillColor=#FFD4F2;strokeColor=#000000;strokeWidth=0.5;glass=0;shadow=1;fontFamily=Comic Neue;fontSource=https%3A%2F%2Ffonts.googleapis.com%2Fcss%3Ffamily%3DComic%2BNeue;fontStyle=0;" parent="1" vertex="1">
          <mxGeometry x="185.25" y="690.74" width="184.75" height="48.12" as="geometry" />
        </mxCell>
        <mxCell id="m8N0sq1PeGTfy-VQiYK0-5" value="" style="verticalLabelPosition=bottom;verticalAlign=top;html=1;shape=mxgraph.basic.tick;fillColor=#cdeb8b;strokeColor=#36393d;" parent="1" vertex="1">
          <mxGeometry x="728.07" y="669.09" width="12.37" height="14.36" as="geometry" />
        </mxCell>
        <mxCell id="m8N0sq1PeGTfy-VQiYK0-6" value="" style="verticalLabelPosition=bottom;verticalAlign=top;html=1;shape=mxgraph.basic.x;fillColor=#ffcccc;strokeColor=#36393d;" parent="1" vertex="1">
          <mxGeometry x="729.25" y="651.45" width="10" height="10" as="geometry" />
        </mxCell>
        <mxCell id="m8N0sq1PeGTfy-VQiYK0-13" value="" style="verticalLabelPosition=bottom;verticalAlign=top;html=1;shape=mxgraph.basic.x;fillColor=#ffcccc;strokeColor=#36393d;" parent="1" vertex="1">
          <mxGeometry x="729.25" y="691.45" width="10" height="10" as="geometry" />
        </mxCell>
        <mxCell id="m8N0sq1PeGTfy-VQiYK0-21" value="" style="endArrow=none;html=1;rounded=0;" parent="1" edge="1">
          <mxGeometry width="50" height="50" relative="1" as="geometry">
            <mxPoint x="747.75" y="696.21" as="sourcePoint" />
            <mxPoint x="801.25" y="696.21" as="targetPoint" />
          </mxGeometry>
        </mxCell>
        <mxCell id="m8N0sq1PeGTfy-VQiYK0-22" value="" style="endArrow=none;html=1;rounded=0;" parent="1" edge="1">
          <mxGeometry width="50" height="50" relative="1" as="geometry">
            <mxPoint x="747.5" y="676.19" as="sourcePoint" />
            <mxPoint x="801" y="676.19" as="targetPoint" />
          </mxGeometry>
        </mxCell>
        <mxCell id="m8N0sq1PeGTfy-VQiYK0-23" value="" style="endArrow=none;html=1;rounded=0;" parent="1" edge="1">
          <mxGeometry width="50" height="50" relative="1" as="geometry">
            <mxPoint x="747.5" y="657.01" as="sourcePoint" />
            <mxPoint x="801" y="657.01" as="targetPoint" />
          </mxGeometry>
        </mxCell>
        <mxCell id="m8N0sq1PeGTfy-VQiYK0-27" value="" style="endArrow=none;html=1;rounded=0;" parent="1" edge="1">
          <mxGeometry width="50" height="50" relative="1" as="geometry">
            <mxPoint x="747.5" y="667.09" as="sourcePoint" />
            <mxPoint x="786.25" y="667.09" as="targetPoint" />
          </mxGeometry>
        </mxCell>
        <mxCell id="m8N0sq1PeGTfy-VQiYK0-28" value="" style="endArrow=none;html=1;rounded=0;" parent="1" edge="1">
          <mxGeometry width="50" height="50" relative="1" as="geometry">
            <mxPoint x="747.5" y="685.09" as="sourcePoint" />
            <mxPoint x="786.25" y="685.09" as="targetPoint" />
          </mxGeometry>
        </mxCell>
        <mxCell id="FoI2KmP5DHRewftGKQJd-3" value="" style="endArrow=none;html=1;rounded=0;" parent="1" edge="1">
          <mxGeometry width="50" height="50" relative="1" as="geometry">
            <mxPoint x="747.5" y="637.53" as="sourcePoint" />
            <mxPoint x="801" y="637.53" as="targetPoint" />
          </mxGeometry>
        </mxCell>
        <mxCell id="FoI2KmP5DHRewftGKQJd-4" value="" style="endArrow=none;html=1;rounded=0;" parent="1" edge="1">
          <mxGeometry width="50" height="50" relative="1" as="geometry">
            <mxPoint x="747.5" y="647.61" as="sourcePoint" />
            <mxPoint x="786.25" y="647.61" as="targetPoint" />
          </mxGeometry>
        </mxCell>
        <mxCell id="FoI2KmP5DHRewftGKQJd-5" value="" style="verticalLabelPosition=bottom;verticalAlign=top;html=1;shape=mxgraph.basic.tick;fillColor=#cdeb8b;strokeColor=#36393d;" parent="1" vertex="1">
          <mxGeometry x="728.07" y="626.69" width="12.37" height="14.36" as="geometry" />
        </mxCell>
        <mxCell id="FoI2KmP5DHRewftGKQJd-7" value="&lt;font style=&quot;font-size: 16px;&quot; face=&quot;Comic Neue&quot;&gt;&lt;br&gt;&lt;/font&gt;" style="rounded=1;whiteSpace=wrap;html=1;strokeWidth=0.5;shadow=1;" parent="1" vertex="1">
          <mxGeometry x="860.53" y="562.1" width="168.93" height="84.63" as="geometry" />
        </mxCell>
        <mxCell id="FoI2KmP5DHRewftGKQJd-8" value="&lt;font style=&quot;font-size: 16px;&quot; data-font-src=&quot;https://fonts.googleapis.com/css?family=Comic+Neue&quot; face=&quot;Comic Neue&quot;&gt;&lt;br&gt;A&lt;/font&gt;" style="shape=actor;whiteSpace=wrap;html=1;fillColor=#eeeeee;strokeColor=#36393d;" parent="1" vertex="1">
          <mxGeometry x="909.9999999999998" y="568.8900000000001" width="30" height="45" as="geometry" />
        </mxCell>
        <mxCell id="FoI2KmP5DHRewftGKQJd-9" value="&lt;font style=&quot;font-size: 16px;&quot; data-font-src=&quot;https://fonts.googleapis.com/css?family=Comic+Neue&quot; face=&quot;Comic Neue&quot;&gt;&lt;br&gt;B&lt;/font&gt;" style="shape=actor;whiteSpace=wrap;html=1;fillColor=#eeeeee;strokeColor=#36393d;" parent="1" vertex="1">
          <mxGeometry x="949.9999999999998" y="568.8900000000001" width="30" height="45" as="geometry" />
        </mxCell>
        <mxCell id="FoI2KmP5DHRewftGKQJd-10" value="&lt;font style=&quot;font-size: 16px;&quot;&gt;Two Annotators&lt;/font&gt;" style="text;html=1;strokeColor=none;fillColor=none;align=center;verticalAlign=middle;whiteSpace=wrap;rounded=0;fontFamily=Comic Neue;fontSource=https%3A%2F%2Ffonts.googleapis.com%2Fcss%3Ffamily%3DComic%2BNeue;" parent="1" vertex="1">
          <mxGeometry x="877.5" y="612.23" width="134.99" height="30" as="geometry" />
        </mxCell>
      </root>
    </mxGraphModel>
  </diagram>
</mxfile>
